General                          : ChattChitto RG - Movies
==========

Complete name                    : Legion 2010 BRRip.MP4
Format                           : MPEG-4
Format profile                   : Base Media
Codec ID                         : isom
File size                        : 1.86 GiB
Duration                         : 1h 40mn
Overall bit rate                 : 2 655 Kbps
Encoded date                     : UTC 2010-04-24 20:14:29

Video
==========
ID                               : 1
Format                           : AVC
Format/Info                      : Advanced Video Codec
Format profile                   : High@L3.1
Format settings, CABAC           : Yes
Format settings, ReFrames        : 3 frames
Codec ID                         : avc1
Codec ID/Info                    : Advanced Video Coding
Duration                         : 1h 40mn
Bit rate mode                    : Variable
Bit rate                         : 2 300 Kbps
Maximum bit rate                 : 15.0 Mbps
Width                            : 1 280 pixels
Height                           : 528 pixels
Display aspect ratio             : 2.40:1
Frame rate mode                  : Constant
Frame rate                       : 23.976 fps
Resolution                       : 8 bits
Colorimetry                      : 4:2:0
Scan type                        : Progressive
Bits/(Pixel*Frame)               : 0.142
Stream size                      : 1.61 GiB (87%)
Writing library                  : x264 core 76 r1271 496d79d
Encoded date                     : UTC 2010-04-24 19:05:25

Audio
==========
ID                               : 2
Format                           : AAC
Format/Info                      : Advanced Audio Codec
Format version                   : Version 4
Format profile                   : LC
Format settings, SBR             : No
Codec ID                         : 40
Duration                         : 1h 40mn
Bit rate mode                    : Variable
Bit rate                         : 352.8 Kbps
Maximum bit rate                 : 438 Kbps
Channel(s)                       : 6 channels
Channel positions                : Front: L C R, Side: L R, LFE
Sampling rate                    : 48.0 KHz
Stream size                      : 252 MiB (13%)
Encoded date                     : UTC 2010-04-24 20:15:28

Subtitles                        : English | Spanish | Portuguese



----------------------------------------------------
IMDB Link: http://www.imdb.com/title/tt1038686/
----------------------------------------------------


Screen Shots:
============== 
http://bayimg.com/IAmPaAacB 
http://bayimg.com/HamPpaAcb 
http://bayimg.com/hAMpOAacB 
http://bayimg.com/haMPNaacB 
http://bayimg.com/hampMaACB



Plot:
======
At a remote desert truck stop, the fate of the world will be decided. Evil's armies are amassing. Armed and united by the Archangel Michael, a group of strangers become unwitting soldiers on the frontlines of the Apocalypse. Their mission: protect a waitress and her sacred unborn child from the relentless, bloody siege of the demonic legion.




Release Info:
==============
original name .... : Legion 2010 BRRip.MP4                                
ripper.............: METiS
encoder............: Recalled2Life (R2L)
video codec........: H264/.MP4                   
video bitrate......: 2300 Kbps                           
audio codec........: AAC-LC	                                        
aspect ratio.......: 2.40:1                              
resolution.........: 1280 x 528                             
genre..............: Action | Fantasy | Thriller          
runtime............: 1h 40mn
language...........: English                              
subtitles..........: English | Spanish | Portuguese
sample.............: Yes [11.6 MB]
2ch Audio..........: 2ch Audio for XBox Viewers  



Source:
========
Legion 2010 1080p BluRay x264-METiS [7.95 GB]


Notes:
=======
ChattChitto RG Encourages Burning this Film with ConvertXtoDVD.
Enhanced and Filtered for your viewing pleasure ;)